<svg id="Capa_1" enable-background="new 0 0 511 511" height="512" viewBox="0 0 511 511" width="512" xmlns="http://www.w3.org/2000/svg"><g fill="#2ac3d1"><path d="m463.5 23h-463.5v405h426v60h37.5c26.191 0 47.5-21.309 47.5-47.5v-370c0-26.191-21.309-47.5-47.5-47.5zm32.5 417.5c0 17.921-14.58 32.5-32.5 32.5h-22.5v-355c14.432-1.521 35.598 5.34 55-12.89zm-32.5-337.5h-37.5v310h-411v-375h448.5c17.92 0 32.5 14.579 32.5 32.5s-14.58 32.5-32.5 32.5z"/><path d="m376.996 117.123c4.362-9.407 2.607-16.465 3.004-23.623 0-17.921-14.58-32.5-32.5-32.5s-32.5 14.579-32.5 32.5c.398 7.168-1.329 14.279 3.004 23.623-7.961 4.734-14.537 11.23-19.311 18.877h-145.693v-45h-30v-4.5c0-15.163-12.336-27.5-27.5-27.5s-27.5 12.337-27.5 27.5v4.5h-30v105h115v-45h61v82.356c-41.987 3.804-75 39.183-75 82.144 0 45.49 37.009 82.5 82.5 82.5s82.5-37.01 82.5-82.5c0-42.961-33.013-78.34-75-82.144v-82.356h63.106c-3.353 12.092-1.632 19.06-2.106 45h115c-2.244-14.323 9.909-56.333-28.004-78.877zm-293.996-30.623c0-6.893 5.607-12.5 12.5-12.5s12.5 5.607 12.5 12.5v4.5h-25zm55 94.5h-85v-75h15v20.5h15v-20.5h25v20.5h15v-20.5h15zm151 134.5c0 37.22-30.28 67.5-67.5 67.5s-67.5-30.28-67.5-67.5 30.28-67.5 67.5-67.5 67.5 30.28 67.5 67.5zm41-222c0-9.649 7.851-17.5 17.5-17.5s17.5 7.851 17.5 17.5v10c0 9.649-7.851 17.5-17.5 17.5s-17.5-7.851-17.5-17.5zm60 87.5h-85c1.027-5.291-6.163-36.71 22.424-51.97 11.71 9.228 28.272 9.362 40.151 0 28.439 15.18 21.505 47.23 22.425 51.97z"/><path d="m214 261.5v14.5h-1.5c-12.958 0-23.5 10.542-23.5 23.5s10.542 23.5 23.5 23.5h18c4.687 0 8.5 3.813 8.5 8.5s-3.813 8.5-8.5 8.5h-34v15h17.5v14.5h15v-14.5h1.5c12.958 0 23.5-10.542 23.5-23.5s-10.542-23.5-23.5-23.5h-18c-4.687 0-8.5-3.813-8.5-8.5s3.813-8.5 8.5-8.5h34v-15h-17.5v-14.5z"/></g></svg>