<svg id="Capa_1" enable-background="new 0 0 511.734 511.734" height="512" viewBox="0 0 511.734 511.734" width="512" xmlns="http://www.w3.org/2000/svg"><g><path d="m506.817 369.256c-16.59-23.225-44.213-29.842-68.738-16.464l-83.526 45.56c-3.432-13.677-15.826-23.837-30.553-23.837h-67.975c-4.008-8.097-12.366-23.518-20.567-29.58-48.516-43.858-132.837-4.663-146.227 2.003h-23.731v-19.413h-65.5v15h50.5v115h-50.5v15h65.5v-19.479h43.876l187.054 58.164 215.304-135.076zm-212.517 125.583-182.646-56.793h-46.154v-76.108h27.374c38.631-19.927 99.96-35.673 132.79-5.635.1.08.869.696.769.616 8.111 5.665 20.006 32.497 20.058 32.597h77.509c9.098 0 16.5 7.402 16.5 16.5s-7.402 16.5-16.5 16.5h-102v15h102c13.965 0 25.83-9.138 29.947-21.746l91.316-49.809c15.606-8.513 32.404-5.953 44.504 6.249zm-38.3-179.315c86.846 0 157.5-70.654 157.5-157.5s-70.654-157.5-157.5-157.5-157.5 70.655-157.5 157.5 70.654 157.5 157.5 157.5zm47.569-23.174c10.685-11.489 18.732-25.502 24.839-39.817 6.928 4.096 13.536 8.8 19.755 14.082-13.059 11.099-28.134 19.888-44.594 25.735zm55.569-36.092c-7.894-6.851-16.376-12.841-25.316-17.933 7.374-21.925 11.62-46.797 12.305-72.801h52.177c-1.829 35.081-16.401 66.843-39.166 90.734zm39.165-105.734h-52.177c-.637-24.196-4.372-47.4-10.825-68.175 9.441-5.521 18.357-12.055 26.603-19.563 21.173 23.521 34.646 54.103 36.399 87.738zm-47.02-98.364c-6.586 5.938-13.637 11.197-21.066 15.747-2.731-6.887-5.774-13.446-9.152-19.571-5.285-9.582-11.16-17.825-17.496-24.637 17.787 6.318 33.96 16.07 47.714 28.461zm-87.783-35.905c16.493 3.195 32.047 16.874 44.43 39.326 3.348 6.071 6.341 12.619 9.002 19.525-16.599 7.861-34.679 12.439-53.432 13.404zm0 87.273c20.428-.951 40.141-5.787 58.296-14.143 5.524 18.667 8.725 39.445 9.325 61.139h-67.621zm0 61.996h67.621c-.652 23.578-4.382 46.068-10.823 65.946-17.77-7.95-36.981-12.566-56.798-13.497zm0 67.474c18.012.935 35.465 5.225 51.581 12.571-2.182 5.21-4.559 10.199-7.151 14.9-12.383 22.452-27.937 36.131-44.43 39.326zm-99.662 33.617c6.219-5.283 12.827-9.986 19.755-14.082 2.255 5.286 4.691 10.372 7.343 15.18 5.285 9.582 11.16 17.825 17.496 24.637-16.461-5.847-31.536-14.636-44.594-25.735zm84.662 33.179c-16.493-3.195-32.047-16.874-44.43-39.326-2.592-4.7-4.968-9.69-7.151-14.899 16.116-7.346 33.568-11.636 51.581-12.571zm0-81.82c-19.816.93-39.027 5.546-56.798 13.497-6.441-19.879-10.171-42.368-10.823-65.946h67.62v52.449zm0-67.45h-67.62c.6-21.694 3.8-42.473 9.325-61.139 18.155 8.355 37.868 13.192 58.296 14.143v46.996zm0-134.269v72.255c-18.753-.966-36.832-5.543-53.432-13.404 2.661-6.905 5.654-13.453 9.002-19.524 12.383-22.454 27.937-36.132 44.43-39.327zm-40.068 7.444c-9.434 10.144-18.828 24.492-26.648 44.208-7.43-4.55-14.481-9.809-21.067-15.747 13.754-12.391 29.927-22.143 47.715-28.461zm-58.336 39.087c8.246 7.508 17.162 14.042 26.603 19.563-6.454 20.775-10.188 43.979-10.825 68.175h-52.177c1.753-33.635 15.226-64.217 36.399-87.738zm15.778 102.738c.685 26.004 4.931 50.875 12.305 72.801-8.941 5.092-17.422 11.083-25.317 17.933-22.765-23.891-37.337-55.653-39.165-90.734zm231.626 175.5v-76h15v76zm-35-40h15v54h-15zm-36 54v-33h15v33z" fill="#2ac3d1"/></g></svg>